<svg width="32" height="32" viewBox="0 0 32 32" fill="none" xmlns="http://www.w3.org/2000/svg">
<rect width="32" height="32" rx="16" fill="#1A1D23"/>
<path fill-rule="evenodd" clip-rule="evenodd" d="M12.6667 9.33335C12.6667 8.96516 12.9652 8.66669 13.3334 8.66669H18.6667C19.0349 8.66669 19.3334 8.96516 19.3334 9.33335C19.3334 9.70154 19.0349 10 18.6667 10H13.3334C12.9652 10 12.6667 9.70154 12.6667 9.33335Z" fill="#7B94CB"/>
<path fill-rule="evenodd" clip-rule="evenodd" d="M14 8.66669C14.3682 8.66669 14.6667 8.96516 14.6667 9.33335V11.1927C14.6666 11.8508 14.4718 12.4942 14.1067 13.0418C14.1067 13.0418 14.1067 13.0418 14.1067 13.0418L13.6694 13.6978C13.4502 14.0265 13.3332 14.4128 13.3333 14.8079V21.3334C13.3333 21.5102 13.4036 21.6797 13.5286 21.8048C13.6536 21.9298 13.8232 22 14 22H18C18.1768 22 18.3464 21.9298 18.4714 21.8048C18.5964 21.6797 18.6667 21.5102 18.6667 21.3334V14.8074C18.6667 14.8074 18.6667 14.8074 18.6667 14.8074C18.6667 14.4125 18.5497 14.0264 18.3307 13.6979L17.8933 13.0419C17.8933 13.0419 17.8933 13.0419 17.8933 13.0419C17.5281 12.4941 17.3332 11.8504 17.3333 11.192C17.3333 11.192 17.3333 11.1921 17.3333 11.192V9.33335C17.3333 8.96516 17.6318 8.66669 18 8.66669C18.3682 8.66669 18.6667 8.96516 18.6667 9.33335V11.192C18.6666 11.5871 18.7835 11.9735 19.0027 12.3022L19.44 12.9582C19.8051 13.5058 20 14.1492 20 14.8073V21.3334C20 21.8638 19.7893 22.3725 19.4142 22.7476C19.0391 23.1226 18.5304 23.3334 18 23.3334H14C13.4696 23.3334 12.9609 23.1226 12.5858 22.7476C12.2107 22.3725 12 21.8638 12 21.3334V14.8082C12 14.8081 12 14.8082 12 14.8082C11.9999 14.1498 12.1947 13.506 12.56 12.9582C12.56 12.9582 12.56 12.9582 12.56 12.9582L12.9973 12.3022C13.2164 11.9737 13.3333 11.5876 13.3333 11.1927C13.3333 11.1927 13.3333 11.1927 13.3333 11.1927V9.33335C13.3333 8.96516 13.6318 8.66669 14 8.66669Z" fill="#7B94CB"/>
<path fill-rule="evenodd" clip-rule="evenodd" d="M14.3333 18.3317C13.8494 18.3317 13.3704 18.428 12.9241 18.6149C12.5845 18.7571 12.1939 18.5971 12.0517 18.2575C11.9095 17.9179 12.0695 17.5273 12.4091 17.3851C13.0185 17.1298 13.6726 16.9984 14.3333 16.9984C14.994 16.9984 15.648 17.1298 16.2574 17.3851L16.2575 17.3851C16.7038 17.572 17.1828 17.6683 17.6666 17.6683C18.1504 17.6683 18.6294 17.572 19.0757 17.3851C19.4153 17.2428 19.8059 17.4028 19.9482 17.7424C20.0904 18.082 19.9305 18.4726 19.5909 18.6149C18.9815 18.8702 18.3273 19.0017 17.6666 19.0017C17.0059 19.0017 16.3518 18.8702 15.7424 18.6149M14.3333 18.3317C14.8171 18.3317 15.2961 18.428 15.7423 18.6149L14.3333 18.3317Z" fill="#7B94CB"/>
</svg>
