<svg width="94" height="32" viewBox="0 0 94 32" fill="none" xmlns="http://www.w3.org/2000/svg">
<rect width="94" height="32" rx="16" fill="#1A1D23"/>
<path fill-rule="evenodd" clip-rule="evenodd" d="M20.6667 9.33329C20.6667 8.9651 20.9652 8.66663 21.3334 8.66663H26.6667C27.0349 8.66663 27.3334 8.9651 27.3334 9.33329C27.3334 9.70148 27.0349 9.99996 26.6667 9.99996H21.3334C20.9652 9.99996 20.6667 9.70148 20.6667 9.33329Z" fill="#7B94CB"/>
<path fill-rule="evenodd" clip-rule="evenodd" d="M22 8.66663C22.3682 8.66663 22.6667 8.9651 22.6667 9.33329V11.1926C22.6666 11.8508 22.4718 12.4942 22.1067 13.0418C22.1067 13.0418 22.1067 13.0417 22.1067 13.0418L21.6694 13.6978C21.4502 14.0265 21.3332 14.4127 21.3333 14.8078V21.3333C21.3333 21.5101 21.4036 21.6797 21.5286 21.8047C21.6536 21.9297 21.8232 22 22 22H26C26.1768 22 26.3464 21.9297 26.4714 21.8047C26.5964 21.6797 26.6667 21.5101 26.6667 21.3333V14.8073C26.6667 14.8073 26.6667 14.8073 26.6667 14.8073C26.6667 14.4124 26.5497 14.0264 26.3307 13.6978L25.8933 13.0418C25.8933 13.0418 25.8933 13.0418 25.8933 13.0418C25.5281 12.494 25.3332 11.8503 25.3333 11.192C25.3333 11.1919 25.3333 11.192 25.3333 11.192V9.33329C25.3333 8.9651 25.6318 8.66663 26 8.66663C26.3682 8.66663 26.6667 8.9651 26.6667 9.33329V11.192C26.6666 11.587 26.7835 11.9734 27.0027 12.3021L27.44 12.9581C27.8051 13.5057 28 14.1491 28 14.8073V21.3333C28 21.8637 27.7893 22.3724 27.4142 22.7475C27.0391 23.1226 26.5304 23.3333 26 23.3333H22C21.4696 23.3333 20.9609 23.1226 20.5858 22.7475C20.2107 22.3724 20 21.8637 20 21.3333V14.8081C20 14.8081 20 14.8082 20 14.8081C19.9999 14.1497 20.1947 13.5059 20.56 12.9582C20.56 12.9582 20.56 12.9581 20.56 12.9582L20.9973 12.3022C21.2164 11.9736 21.3333 11.5875 21.3333 11.1926C21.3333 11.1926 21.3333 11.1926 21.3333 11.1926V9.33329C21.3333 8.9651 21.6318 8.66663 22 8.66663Z" fill="#7B94CB"/>
<path fill-rule="evenodd" clip-rule="evenodd" d="M22.3333 18.3317C21.8494 18.3317 21.3704 18.428 20.9241 18.6149C20.5845 18.7571 20.1939 18.5971 20.0517 18.2575C19.9095 17.9179 20.0695 17.5273 20.4091 17.3851C21.0185 17.1298 21.6726 16.9984 22.3333 16.9984C22.994 16.9984 23.648 17.1298 24.2574 17.3851L24.2575 17.3851C24.7038 17.572 25.1828 17.6683 25.6666 17.6683C26.1504 17.6683 26.6294 17.572 27.0757 17.3851C27.4153 17.2428 27.8059 17.4028 27.9482 17.7424C28.0904 18.082 27.9305 18.4726 27.5909 18.6149C26.9815 18.8702 26.3273 19.0017 25.6666 19.0017C25.0059 19.0017 24.3518 18.8702 23.7424 18.6149M22.3333 18.3317C22.8171 18.3317 23.2961 18.428 23.7423 18.6149L22.3333 18.3317Z" fill="#7B94CB"/>
<path d="M38.8608 20V11.2727H40.4034V14.5369H40.4673C40.5469 14.3778 40.6591 14.2088 40.804 14.0298C40.9489 13.848 41.1449 13.6932 41.392 13.5653C41.6392 13.4347 41.9545 13.3693 42.3381 13.3693C42.8438 13.3693 43.2997 13.4986 43.706 13.7571C44.1151 14.0128 44.4389 14.392 44.6776 14.8949C44.919 15.3949 45.0398 16.0085 45.0398 16.7358C45.0398 17.4545 44.9219 18.0653 44.6861 18.5682C44.4503 19.071 44.1293 19.4545 43.723 19.7188C43.3168 19.983 42.8565 20.1151 42.3423 20.1151C41.9673 20.1151 41.6563 20.0526 41.4091 19.9276C41.1619 19.8026 40.9631 19.652 40.8125 19.4759C40.6648 19.2969 40.5497 19.1278 40.4673 18.9688H40.3778V20H38.8608ZM40.3736 16.7273C40.3736 17.1506 40.4332 17.5213 40.5526 17.8395C40.6747 18.1577 40.8494 18.4062 41.0767 18.5852C41.3068 18.7614 41.5852 18.8494 41.9119 18.8494C42.2528 18.8494 42.5384 18.7585 42.7685 18.5767C42.9986 18.392 43.1719 18.1406 43.2884 17.8224C43.4077 17.5014 43.4673 17.1364 43.4673 16.7273C43.4673 16.321 43.4091 15.9602 43.2926 15.6449C43.1761 15.3295 43.0028 15.0824 42.7727 14.9034C42.5426 14.7244 42.2557 14.6349 41.9119 14.6349C41.5824 14.6349 41.3026 14.7216 41.0724 14.8949C40.8423 15.0682 40.6676 15.3111 40.5483 15.6236C40.4318 15.9361 40.3736 16.304 40.3736 16.7273ZM49.2489 20.1278C48.5927 20.1278 48.0259 19.9915 47.5487 19.7188C47.0742 19.4432 46.7092 19.054 46.4535 18.5511C46.1978 18.0455 46.07 17.4503 46.07 16.7656C46.07 16.0923 46.1978 15.5014 46.4535 14.9929C46.712 14.4815 47.0728 14.0838 47.5359 13.7997C47.9989 13.5128 48.543 13.3693 49.168 13.3693C49.5714 13.3693 49.9521 13.4347 50.31 13.5653C50.6708 13.6932 50.989 13.892 51.2646 14.1619C51.543 14.4318 51.7617 14.7756 51.9208 15.1932C52.0799 15.608 52.1594 16.1023 52.1594 16.6761V17.1491H46.7944V16.1094H50.6808C50.6779 15.8139 50.614 15.5511 50.489 15.321C50.364 15.0881 50.1893 14.9048 49.9648 14.7713C49.7433 14.6378 49.4847 14.571 49.1893 14.571C48.8739 14.571 48.5969 14.6477 48.3583 14.8011C48.1197 14.9517 47.9336 15.1506 47.8001 15.3977C47.6694 15.642 47.6026 15.9105 47.5998 16.2031V17.1108C47.5998 17.4915 47.6694 17.8182 47.8086 18.0909C47.9478 18.3608 48.1424 18.5682 48.3924 18.7131C48.6424 18.8551 48.935 18.9261 49.2702 18.9261C49.4947 18.9261 49.6978 18.8949 49.8796 18.8324C50.0614 18.767 50.2191 18.6719 50.3526 18.5469C50.4862 18.4219 50.587 18.267 50.6552 18.0824L52.0955 18.2443C52.0046 18.625 51.8313 18.9574 51.5756 19.2415C51.3228 19.5227 50.9989 19.7415 50.604 19.8977C50.2092 20.0511 49.7575 20.1278 49.2489 20.1278ZM53.5327 20V11.2727H55.0753V14.5369H55.1392C55.2188 14.3778 55.331 14.2088 55.4759 14.0298C55.6207 13.848 55.8168 13.6932 56.0639 13.5653C56.3111 13.4347 56.6264 13.3693 57.0099 13.3693C57.5156 13.3693 57.9716 13.4986 58.3778 13.7571C58.7869 14.0128 59.1108 14.392 59.3494 14.8949C59.5909 15.3949 59.7116 16.0085 59.7116 16.7358C59.7116 17.4545 59.5938 18.0653 59.358 18.5682C59.1222 19.071 58.8011 19.4545 58.3949 19.7188C57.9886 19.983 57.5284 20.1151 57.0142 20.1151C56.6392 20.1151 56.3281 20.0526 56.081 19.9276C55.8338 19.8026 55.6349 19.652 55.4844 19.4759C55.3366 19.2969 55.2216 19.1278 55.1392 18.9688H55.0497V20H53.5327ZM55.0455 16.7273C55.0455 17.1506 55.1051 17.5213 55.2244 17.8395C55.3466 18.1577 55.5213 18.4062 55.7486 18.5852C55.9787 18.7614 56.2571 18.8494 56.5838 18.8494C56.9247 18.8494 57.2102 18.7585 57.4403 18.5767C57.6705 18.392 57.8438 18.1406 57.9602 17.8224C58.0795 17.5014 58.1392 17.1364 58.1392 16.7273C58.1392 16.321 58.081 15.9602 57.9645 15.6449C57.848 15.3295 57.6747 15.0824 57.4446 14.9034C57.2145 14.7244 56.9276 14.6349 56.5838 14.6349C56.2543 14.6349 55.9744 14.7216 55.7443 14.8949C55.5142 15.0682 55.3395 15.3111 55.2202 15.6236C55.1037 15.9361 55.0455 16.304 55.0455 16.7273ZM61.0231 20V13.4545H62.5657V20H61.0231ZM61.7987 12.5256C61.5543 12.5256 61.3441 12.4446 61.168 12.2827C60.9918 12.1179 60.9038 11.9205 60.9038 11.6903C60.9038 11.4574 60.9918 11.2599 61.168 11.098C61.3441 10.9332 61.5543 10.8509 61.7987 10.8509C62.0458 10.8509 62.256 10.9332 62.4293 11.098C62.6055 11.2599 62.6935 11.4574 62.6935 11.6903C62.6935 11.9205 62.6055 12.1179 62.4293 12.2827C62.256 12.4446 62.0458 12.5256 61.7987 12.5256ZM66.581 20.1151C66.0668 20.1151 65.6065 19.983 65.2003 19.7188C64.794 19.4545 64.473 19.071 64.2372 18.5682C64.0014 18.0653 63.8835 17.4545 63.8835 16.7358C63.8835 16.0085 64.0028 15.3949 64.2415 14.8949C64.483 14.392 64.8082 14.0128 65.2173 13.7571C65.6264 13.4986 66.0824 13.3693 66.5852 13.3693C66.9688 13.3693 67.2841 13.4347 67.5312 13.5653C67.7784 13.6932 67.9744 13.848 68.1193 14.0298C68.2642 14.2088 68.3764 14.3778 68.456 14.5369H68.5199V11.2727H70.0668V20H68.5497V18.9688H68.456C68.3764 19.1278 68.2614 19.2969 68.1108 19.4759C67.9602 19.652 67.7614 19.8026 67.5142 19.9276C67.267 20.0526 66.956 20.1151 66.581 20.1151ZM67.0114 18.8494C67.3381 18.8494 67.6165 18.7614 67.8466 18.5852C68.0767 18.4062 68.2514 18.1577 68.3707 17.8395C68.4901 17.5213 68.5497 17.1506 68.5497 16.7273C68.5497 16.304 68.4901 15.9361 68.3707 15.6236C68.2543 15.3111 68.081 15.0682 67.8509 14.8949C67.6236 14.7216 67.3438 14.6349 67.0114 14.6349C66.6676 14.6349 66.3807 14.7244 66.1506 14.9034C65.9205 15.0824 65.7472 15.3295 65.6307 15.6449C65.5142 15.9602 65.456 16.321 65.456 16.7273C65.456 17.1364 65.5142 17.5014 65.6307 17.8224C65.75 18.1406 65.9247 18.392 66.1548 18.5767C66.3878 18.7585 66.6733 18.8494 67.0114 18.8494ZM73.5941 20.1321C73.1793 20.1321 72.8058 20.0582 72.4734 19.9105C72.1438 19.7599 71.8825 19.5384 71.6893 19.2457C71.4989 18.9531 71.4038 18.5923 71.4038 18.1634C71.4038 17.794 71.4719 17.4886 71.6083 17.2472C71.7447 17.0057 71.9308 16.8125 72.1665 16.6676C72.4023 16.5227 72.668 16.4134 72.9634 16.3395C73.2617 16.2628 73.57 16.2074 73.8881 16.1733C74.2717 16.1335 74.5827 16.098 74.8214 16.0668C75.06 16.0327 75.2333 15.9815 75.3413 15.9134C75.4521 15.8423 75.5075 15.733 75.5075 15.5852V15.5597C75.5075 15.2386 75.4123 14.9901 75.2219 14.8139C75.0316 14.6378 74.7575 14.5497 74.3995 14.5497C74.0217 14.5497 73.7219 14.6321 73.5004 14.7969C73.2816 14.9616 73.1339 15.1562 73.0572 15.3807L71.6168 15.1761C71.7305 14.7784 71.918 14.446 72.1793 14.179C72.4407 13.9091 72.7603 13.7074 73.1381 13.5739C73.516 13.4375 73.9336 13.3693 74.391 13.3693C74.7063 13.3693 75.0202 13.4062 75.3327 13.4801C75.6452 13.554 75.9308 13.6761 76.1893 13.8466C76.4478 14.0142 76.6552 14.2429 76.8114 14.5327C76.9705 14.8224 77.0501 15.1847 77.0501 15.6193V20H75.5671V19.1009H75.516C75.4222 19.2827 75.2901 19.4531 75.1197 19.6122C74.9521 19.7685 74.7404 19.8949 74.4847 19.9915C74.2319 20.0852 73.935 20.1321 73.5941 20.1321ZM73.9947 18.9986C74.3043 18.9986 74.5728 18.9375 74.8001 18.8153C75.0273 18.6903 75.2021 18.5256 75.3242 18.321C75.4492 18.1165 75.5117 17.8935 75.5117 17.652V16.8807C75.4634 16.9205 75.381 16.9574 75.2646 16.9915C75.1509 17.0256 75.0231 17.0554 74.881 17.081C74.739 17.1065 74.5984 17.1293 74.4592 17.1491C74.32 17.169 74.1992 17.1861 74.0969 17.2003C73.8668 17.2315 73.6609 17.2827 73.479 17.3537C73.2972 17.4247 73.1538 17.5241 73.0487 17.652C72.9435 17.777 72.891 17.9389 72.891 18.1378C72.891 18.4219 72.9947 18.6364 73.2021 18.7812C73.4094 18.9261 73.6737 18.9986 73.9947 18.9986Z" fill="#7B94CB"/>
</svg>
