<svg width="88" height="32" viewBox="0 0 88 32" fill="none" xmlns="http://www.w3.org/2000/svg">
<rect x="0.5" width="87" height="32" rx="16" fill="#251622"/>
<path fill-rule="evenodd" clip-rule="evenodd" d="M24.8333 12.6667C24.281 12.6667 23.8333 13.1144 23.8333 13.6667C23.8333 14.219 24.281 14.6667 24.8333 14.6667C25.3856 14.6667 25.8333 14.219 25.8333 13.6667C25.8333 13.1144 25.3856 12.6667 24.8333 12.6667ZM22.5 13.6667C22.5 12.378 23.5447 11.3334 24.8333 11.3334C26.122 11.3334 27.1667 12.378 27.1667 13.6667C27.1667 14.9554 26.122 16 24.8333 16C23.5447 16 22.5 14.9554 22.5 13.6667Z" fill="#DB5BBF"/>
<path fill-rule="evenodd" clip-rule="evenodd" d="M24.8333 8.66663C23.7621 8.66607 22.719 9.00958 21.8577 9.64655L24.8333 8.66663ZM24.8329 9.99996C24.0472 9.99949 23.2822 10.2514 22.6505 10.7186C22.0188 11.1857 21.5538 11.8435 21.3242 12.5948C21.3215 12.6036 21.3186 12.6123 21.3156 12.621C21.1465 13.1023 21.0295 13.4964 20.9249 13.8491C20.9199 13.8658 20.915 13.8824 20.9101 13.8989C20.8036 14.2579 20.702 14.5973 20.5668 14.921C20.2796 15.609 19.8618 16.1775 19.0149 16.9468C19.0065 16.9543 18.998 16.9617 18.9893 16.9688C18.7768 17.1431 18.6232 17.3788 18.5498 17.6436C18.4763 17.9085 18.4865 18.1896 18.579 18.4484C18.6714 18.7072 18.8416 18.9312 19.0662 19.0896C19.2908 19.248 19.5589 19.3331 19.8337 19.3333C22.325 19.3332 25.1107 18.201 27.0065 16.6211C27.0153 16.6139 27.0242 16.6068 27.0333 16.6C27.649 16.1382 28.1037 15.4945 28.3332 14.7599C28.5626 14.0253 28.5552 13.2372 28.3118 12.5071C28.0685 11.777 27.6015 11.142 26.9772 10.6921C26.3529 10.2421 25.6025 9.99996 24.8329 9.99996ZM24.8333 8.66663C25.8826 8.66671 26.9056 8.99689 27.7569 9.61042C28.6082 10.224 29.2449 11.0899 29.5767 12.0855C29.9086 13.081 29.9188 14.1558 29.6059 15.1575C29.2947 16.1536 28.6797 17.0273 27.8472 17.6561C25.7435 19.404 22.6695 20.6666 19.8333 20.6666C19.2836 20.6663 18.747 20.496 18.2978 20.1792C17.8486 19.8624 17.5082 19.4145 17.3233 18.8969C17.1384 18.3792 17.1181 17.817 17.265 17.2873C17.4102 16.7635 17.7121 16.2967 18.1298 15.9494C18.8743 15.2716 19.148 14.8586 19.3364 14.4073C19.4396 14.1601 19.5222 13.8891 19.6319 13.5195C19.6371 13.5019 19.6424 13.4841 19.6478 13.466C19.7514 13.1165 19.8753 12.6989 20.0532 12.1916C20.3678 11.1726 21.0001 10.2808 21.8577 9.64655" fill="#DB5BBF"/>
<path d="M19.9109 21.1151C19.8185 20.8563 19.8083 20.5752 19.8818 20.3103L17.8333 19.6666L18.6553 21.5635C18.8402 22.0812 19.1805 22.5291 19.6297 22.8459C20.079 23.1627 20.6156 23.3329 21.1653 23.3333C24.0014 23.3333 27.0754 22.0707 29.1792 20.3228C30.0116 19.6939 30.6267 18.8203 30.9378 17.8241C31.2507 16.8225 31.2405 15.7477 30.9087 14.7522C30.5768 13.7566 28.8333 10.6666 28.8333 10.6666L29.4999 15C29.7433 15.7301 29.8946 16.692 29.6651 17.4266C29.4357 18.1612 28.9809 18.8049 28.3653 19.2666C28.3561 19.2735 28.3472 19.2805 28.3385 19.2878C26.4426 20.8677 23.657 21.9998 21.1657 22C20.8909 21.9998 20.6228 21.9147 20.3982 21.7563C20.1736 21.5979 20.0034 21.3739 19.9109 21.1151Z" fill="#DB5BBF"/>
<path d="M42.1477 20.1278C41.4943 20.1278 40.9332 19.9844 40.4645 19.6974C39.9986 19.4105 39.6392 19.0142 39.3864 18.5085C39.1364 18 39.0114 17.4148 39.0114 16.7528C39.0114 16.0881 39.1392 15.5014 39.3949 14.9929C39.6506 14.4815 40.0114 14.0838 40.4773 13.7997C40.946 13.5128 41.5 13.3693 42.1392 13.3693C42.6705 13.3693 43.1406 13.4673 43.5497 13.6634C43.9616 13.8565 44.2898 14.1307 44.5341 14.4858C44.7784 14.8381 44.9176 15.25 44.9517 15.7216H43.4773C43.4176 15.4062 43.2756 15.1435 43.0511 14.9332C42.8295 14.7202 42.5327 14.6136 42.1605 14.6136C41.8452 14.6136 41.5682 14.6989 41.3295 14.8693C41.0909 15.0369 40.9048 15.2784 40.7713 15.5938C40.6406 15.9091 40.5753 16.2869 40.5753 16.7273C40.5753 17.1733 40.6406 17.5568 40.7713 17.8778C40.902 18.196 41.0852 18.4418 41.321 18.6151C41.5597 18.7855 41.8395 18.8707 42.1605 18.8707C42.3878 18.8707 42.5909 18.8281 42.7699 18.7429C42.9517 18.6548 43.1037 18.5284 43.2259 18.3636C43.348 18.1989 43.4318 17.9986 43.4773 17.7628H44.9517C44.9148 18.2259 44.7784 18.6364 44.5426 18.9943C44.3068 19.3494 43.9858 19.6278 43.5795 19.8295C43.1733 20.0284 42.696 20.1278 42.1477 20.1278ZM48.1019 20.1321C47.6871 20.1321 47.3136 20.0582 46.9812 19.9105C46.6516 19.7599 46.3903 19.5384 46.1971 19.2457C46.0067 18.9531 45.9116 18.5923 45.9116 18.1634C45.9116 17.794 45.9798 17.4886 46.1161 17.2472C46.2525 17.0057 46.4386 16.8125 46.6744 16.6676C46.9102 16.5227 47.1758 16.4134 47.4712 16.3395C47.7695 16.2628 48.0778 16.2074 48.396 16.1733C48.7795 16.1335 49.0906 16.098 49.3292 16.0668C49.5678 16.0327 49.7411 15.9815 49.8491 15.9134C49.9599 15.8423 50.0153 15.733 50.0153 15.5852V15.5597C50.0153 15.2386 49.9201 14.9901 49.7298 14.8139C49.5394 14.6378 49.2653 14.5497 48.9073 14.5497C48.5295 14.5497 48.2298 14.6321 48.0082 14.7969C47.7894 14.9616 47.6417 15.1562 47.565 15.3807L46.1246 15.1761C46.2383 14.7784 46.4258 14.446 46.6871 14.179C46.9485 13.9091 47.2681 13.7074 47.646 13.5739C48.0238 13.4375 48.4414 13.3693 48.8988 13.3693C49.2141 13.3693 49.5281 13.4062 49.8406 13.4801C50.1531 13.554 50.4386 13.6761 50.6971 13.8466C50.9556 14.0142 51.163 14.2429 51.3192 14.5327C51.4783 14.8224 51.5579 15.1847 51.5579 15.6193V20H50.0749V19.1009H50.0238C49.93 19.2827 49.7979 19.4531 49.6275 19.6122C49.4599 19.7685 49.2482 19.8949 48.9925 19.9915C48.7397 20.0852 48.4428 20.1321 48.1019 20.1321ZM48.5025 18.9986C48.8121 18.9986 49.0806 18.9375 49.3079 18.8153C49.5352 18.6903 49.7099 18.5256 49.832 18.321C49.957 18.1165 50.0195 17.8935 50.0195 17.652V16.8807C49.9712 16.9205 49.8888 16.9574 49.7724 16.9915C49.6587 17.0256 49.5309 17.0554 49.3888 17.081C49.2468 17.1065 49.1062 17.1293 48.967 17.1491C48.8278 17.169 48.707 17.1861 48.6048 17.2003C48.3746 17.2315 48.1687 17.2827 47.9869 17.3537C47.805 17.4247 47.6616 17.5241 47.5565 17.652C47.4513 17.777 47.3988 17.9389 47.3988 18.1378C47.3988 18.4219 47.5025 18.6364 47.7099 18.7812C47.9173 18.9261 48.1815 18.9986 48.5025 18.9986ZM53.109 20V13.4545H54.6048V14.5455H54.6729C54.7923 14.1676 54.9968 13.8764 55.2866 13.6719C55.5792 13.4645 55.913 13.3608 56.288 13.3608C56.3732 13.3608 56.4684 13.3651 56.5735 13.3736C56.6815 13.3793 56.771 13.3892 56.842 13.4034V14.8224C56.7766 14.7997 56.6729 14.7798 56.5309 14.7628C56.3917 14.7429 56.2567 14.733 56.1261 14.733C55.8448 14.733 55.592 14.794 55.3675 14.9162C55.146 15.0355 54.9712 15.2017 54.8434 15.4148C54.7156 15.6278 54.6516 15.8736 54.6516 16.152V20H53.109ZM59.4094 16.1648V20H57.8668V13.4545H59.3413V14.5668H59.418C59.5685 14.2003 59.8086 13.9091 60.1381 13.6932C60.4705 13.4773 60.881 13.3693 61.3697 13.3693C61.8214 13.3693 62.2148 13.4659 62.5501 13.6591C62.8881 13.8523 63.1495 14.1321 63.3342 14.4986C63.5217 14.8651 63.614 15.3097 63.6112 15.8324V20H62.0685V16.071C62.0685 15.6335 61.9549 15.2912 61.7276 15.044C61.5032 14.7969 61.1921 14.6733 60.7944 14.6733C60.5245 14.6733 60.2844 14.733 60.0742 14.8523C59.8668 14.9687 59.7035 15.1378 59.5842 15.3594C59.4677 15.581 59.4094 15.8494 59.4094 16.1648ZM68.0771 20.1278C67.4208 20.1278 66.854 19.9915 66.3768 19.7188C65.9023 19.4432 65.5373 19.054 65.2816 18.5511C65.0259 18.0455 64.8981 17.4503 64.8981 16.7656C64.8981 16.0923 65.0259 15.5014 65.2816 14.9929C65.5401 14.4815 65.9009 14.0838 66.364 13.7997C66.8271 13.5128 67.3711 13.3693 67.9961 13.3693C68.3995 13.3693 68.7802 13.4347 69.1381 13.5653C69.4989 13.6932 69.8171 13.892 70.0927 14.1619C70.3711 14.4318 70.5898 14.7756 70.7489 15.1932C70.908 15.608 70.9876 16.1023 70.9876 16.6761V17.1491H65.6225V16.1094H69.5089C69.506 15.8139 69.4421 15.5511 69.3171 15.321C69.1921 15.0881 69.0174 14.9048 68.793 14.7713C68.5714 14.6378 68.3129 14.571 68.0174 14.571C67.7021 14.571 67.4251 14.6477 67.1864 14.8011C66.9478 14.9517 66.7617 15.1506 66.6282 15.3977C66.4975 15.642 66.4308 15.9105 66.4279 16.2031V17.1108C66.4279 17.4915 66.4975 17.8182 66.6367 18.0909C66.7759 18.3608 66.9705 18.5682 67.2205 18.7131C67.4705 18.8551 67.7631 18.9261 68.0984 18.9261C68.3228 18.9261 68.5259 18.8949 68.7077 18.8324C68.8896 18.767 69.0472 18.6719 69.1808 18.5469C69.3143 18.4219 69.4151 18.267 69.4833 18.0824L70.9237 18.2443C70.8327 18.625 70.6594 18.9574 70.4038 19.2415C70.1509 19.5227 69.8271 19.7415 69.4322 19.8977C69.0373 20.0511 68.5856 20.1278 68.0771 20.1278Z" fill="#DB5BBF"/>
</svg>
