<svg width="32" height="32" viewBox="0 0 32 32" fill="none" xmlns="http://www.w3.org/2000/svg">
<rect width="32" height="32" rx="16" fill="#251622"/>
<path fill-rule="evenodd" clip-rule="evenodd" d="M16.3333 12.6666C15.781 12.6666 15.3333 13.1144 15.3333 13.6666C15.3333 14.2189 15.781 14.6666 16.3333 14.6666C16.8856 14.6666 17.3333 14.2189 17.3333 13.6666C17.3333 13.1144 16.8856 12.6666 16.3333 12.6666ZM14 13.6666C14 12.378 15.0447 11.3333 16.3333 11.3333C17.622 11.3333 18.6667 12.378 18.6667 13.6666C18.6667 14.9553 17.622 16 16.3333 16C15.0447 16 14 14.9553 14 13.6666Z" fill="#DB5BBF"/>
<path fill-rule="evenodd" clip-rule="evenodd" d="M16.3333 8.66669C15.2621 8.66613 14.219 9.00964 13.3577 9.64661L16.3333 8.66669ZM16.3329 10C15.5472 9.99955 14.7822 10.2515 14.1505 10.7186C13.5188 11.1858 13.0538 11.8435 12.8242 12.5949C12.8215 12.6037 12.8186 12.6124 12.8156 12.6211C12.6465 13.1023 12.5295 13.4964 12.4249 13.8492C12.4199 13.8659 12.415 13.8825 12.4101 13.899C12.3036 14.258 12.202 14.5973 12.0668 14.921C11.7796 15.6091 11.3618 16.1775 10.5149 16.9468C10.5065 16.9544 10.498 16.9618 10.4893 16.9689C10.2768 17.1432 10.1232 17.3788 10.0498 17.6437C9.97635 17.9086 9.98654 18.1896 10.079 18.4485C10.1714 18.7073 10.3416 18.9313 10.5662 19.0897C10.7908 19.2481 11.0589 19.3332 11.3337 19.3334C13.825 19.3332 16.6107 18.2011 18.5065 16.6212C18.5153 16.6139 18.5242 16.6069 18.5333 16.6C19.149 16.1383 19.6037 15.4945 19.8332 14.76C20.0626 14.0254 20.0552 13.2373 19.8118 12.5072C19.5685 11.7771 19.1015 11.1421 18.4772 10.6921C17.8529 10.2422 17.1025 10 16.3329 10ZM16.3333 8.66669C17.3826 8.66677 18.4056 8.99695 19.2569 9.61048C20.1082 10.2241 20.7449 11.09 21.0767 12.0855C21.4086 13.0811 21.4188 14.1558 21.1059 15.1575C20.7947 16.1537 20.1797 17.0273 19.3472 17.6562C17.2435 19.404 14.1695 20.6667 11.3333 20.6667C10.7836 20.6663 10.247 20.4961 9.79778 20.1793C9.34855 19.8625 9.00821 19.4146 8.82332 18.8969C8.63844 18.3792 8.61805 17.8171 8.76496 17.2874C8.91022 16.7636 9.21206 16.2968 9.62982 15.9495C10.3743 15.2716 10.648 14.8587 10.8364 14.4073C10.9396 14.1602 11.0222 13.8892 11.1319 13.5196C11.1371 13.5019 11.1424 13.4841 11.1478 13.4661C11.2514 13.1166 11.3753 12.699 11.5532 12.1916C11.8678 11.1727 12.5001 10.2809 13.3577 9.64661" fill="#DB5BBF"/>
<path d="M11.4109 21.1151C11.3185 20.8563 11.3083 20.5752 11.3818 20.3103L9.33325 19.6666L10.1553 21.5635C10.3402 22.0812 10.6805 22.5291 11.1297 22.8459C11.579 23.1627 12.1156 23.3329 12.6653 23.3333C15.5014 23.3333 18.5754 22.0707 20.6792 20.3228C21.5116 19.6939 22.1267 18.8203 22.4378 17.8241C22.7507 16.8225 22.7405 15.7477 22.4087 14.7522C22.0768 13.7566 20.3333 10.6666 20.3333 10.6666L20.9999 15C21.2433 15.7301 21.3946 16.692 21.1651 17.4266C20.9357 18.1612 20.4809 18.8049 19.8653 19.2666C19.8561 19.2735 19.8472 19.2805 19.8385 19.2878C17.9426 20.8677 15.157 21.9998 12.6657 22C12.3909 21.9998 12.1228 21.9147 11.8982 21.7563C11.6736 21.5979 11.5034 21.3739 11.4109 21.1151Z" fill="#DB5BBF"/>
</svg>
