<svg width="84" height="32" viewBox="0 0 84 32" fill="none" xmlns="http://www.w3.org/2000/svg">
<rect x="0.5" width="83" height="32" rx="16" fill="#261A17"/>
<path fill-rule="evenodd" clip-rule="evenodd" d="M21.1736 10.6667C22.0551 10.6682 22.8262 10.9541 23.4401 11.2655C23.7488 11.4222 24.0254 11.5893 24.2593 11.7355C24.329 11.779 24.3926 11.8192 24.4515 11.8563C24.4681 11.8668 24.4843 11.877 24.5001 11.887C24.5159 11.877 24.5321 11.8668 24.5487 11.8563C24.6075 11.8192 24.6712 11.779 24.7408 11.7355C24.9748 11.5893 25.2514 11.4222 25.5601 11.2655C26.1741 10.954 26.9456 10.668 27.8274 10.6667C28.8647 10.649 29.8672 11.0412 30.6172 11.7582C31.3688 12.4767 31.8058 13.4631 31.8332 14.5025C31.8333 14.5084 31.8334 14.5142 31.8334 14.5201C31.8334 16.0456 31.3019 18.176 30.5258 19.9195C30.1361 20.795 29.6673 21.6134 29.1405 22.2246C28.6328 22.8138 27.9636 23.3334 27.1667 23.3334C26.6332 23.3334 26.12 23.1244 25.7329 22.9667C25.7032 22.9547 25.6744 22.9429 25.6463 22.9316C25.1994 22.7511 24.8537 22.6267 24.5001 22.6267C24.1464 22.6267 23.8008 22.7511 23.3539 22.9316C23.3258 22.9429 23.2969 22.9547 23.2673 22.9667C22.8802 23.1244 22.367 23.3334 21.8334 23.3334C21.0366 23.3334 20.3674 22.8138 19.8596 22.2246C19.3329 21.6134 18.864 20.795 18.4744 19.9195C17.6983 18.176 17.1667 16.0456 17.1667 14.5201L17.1669 14.5039C17.1922 13.4634 17.6288 12.4754 18.3811 11.7562C19.1317 11.0386 20.1356 10.6471 21.1736 10.6667ZM21.1529 11.9999C20.4651 11.9857 19.7997 12.2446 19.3025 12.72C18.8071 13.1936 18.5188 13.8435 18.5001 14.5284C18.5021 15.8162 18.9701 17.7543 19.6925 19.3773C20.0528 20.1868 20.4589 20.8776 20.8697 21.3542C21.2995 21.853 21.6302 22 21.8334 22C22.0924 22 22.375 21.8889 22.8546 21.6952C23.2827 21.5223 23.8537 21.2934 24.5001 21.2934C25.1464 21.2934 25.7174 21.5223 26.1455 21.6952C26.6252 21.8889 26.9078 22 27.1667 22C27.3699 22 27.7007 21.853 28.1305 21.3542C28.5412 20.8776 28.9474 20.1868 29.3077 19.3773C30.03 17.7546 30.4979 15.8169 30.5001 14.5291C30.4798 13.8446 30.191 13.1954 29.6958 12.722C29.1986 12.2466 28.5336 11.9871 27.8459 11.9999L27.8334 12.0001C27.2377 12.0001 26.678 12.1935 26.1634 12.4546C25.9071 12.5846 25.6696 12.7274 25.4472 12.8663C25.3954 12.8987 25.3426 12.932 25.2896 12.9655C25.1282 13.0674 24.9653 13.1703 24.8258 13.2484C24.6234 13.3617 24.3767 13.3617 24.1743 13.2484C24.0349 13.1703 23.872 13.0674 23.7105 12.9655C23.6576 12.932 23.6047 12.8987 23.5529 12.8663C23.3306 12.7274 23.093 12.5846 22.8368 12.4546C22.3222 12.1935 21.7625 12.0001 21.1667 12.0001L21.1529 11.9999Z" fill="#E07B67"/>
<path fill-rule="evenodd" clip-rule="evenodd" d="M22.5703 9.03517C22.7349 8.70586 23.1354 8.57237 23.4647 8.73703C24.4591 9.23423 25.1666 10.5528 25.1666 12.6666C25.1666 13.0348 24.8681 13.3333 24.4999 13.3333C24.1317 13.3333 23.8332 13.0348 23.8332 12.6666C23.8332 10.7805 23.2074 10.0991 22.8684 9.9296C22.5391 9.76494 22.4056 9.36449 22.5703 9.03517Z" fill="#E07B67"/>
<path d="M42.608 13.4545V14.6477H38.7386V13.4545H42.608ZM39.706 20V12.8366C39.706 12.3963 39.7969 12.0298 39.9787 11.7372C40.1634 11.4446 40.4105 11.2259 40.7202 11.081C41.0298 10.9361 41.3736 10.8636 41.7514 10.8636C42.0185 10.8636 42.2557 10.8849 42.4631 10.9276C42.6705 10.9702 42.8239 11.0085 42.9233 11.0426L42.6165 12.2358C42.5511 12.2159 42.4688 12.196 42.3693 12.1761C42.2699 12.1534 42.1591 12.142 42.0369 12.142C41.75 12.142 41.5469 12.2116 41.4276 12.3509C41.3111 12.4872 41.2528 12.6832 41.2528 12.9389V20H39.706ZM43.8161 20V13.4545H45.3118V14.5455H45.38C45.4993 14.1676 45.7038 13.8764 45.9936 13.6719C46.2862 13.4645 46.62 13.3608 46.995 13.3608C47.0803 13.3608 47.1754 13.3651 47.2805 13.3736C47.3885 13.3793 47.478 13.3892 47.549 13.4034V14.8224C47.4837 14.7997 47.38 14.7798 47.2379 14.7628C47.0987 14.7429 46.9638 14.733 46.8331 14.733C46.5518 14.733 46.299 14.794 46.0746 14.9162C45.853 15.0355 45.6783 15.2017 45.5504 15.4148C45.4226 15.6278 45.3587 15.8736 45.3587 16.152V20H43.8161ZM52.7457 17.2472V13.4545H54.2884V20H52.7926V18.8366H52.7244C52.5767 19.2031 52.3338 19.5028 51.9957 19.7358C51.6605 19.9687 51.2472 20.0852 50.7557 20.0852C50.3267 20.0852 49.9474 19.9901 49.6179 19.7997C49.2912 19.6065 49.0355 19.3267 48.8509 18.9602C48.6662 18.5909 48.5739 18.1449 48.5739 17.6222V13.4545H50.1165V17.3835C50.1165 17.7983 50.2301 18.1278 50.4574 18.3722C50.6847 18.6165 50.983 18.7386 51.3523 18.7386C51.5795 18.7386 51.7997 18.6832 52.0128 18.5724C52.2259 18.4616 52.4006 18.2969 52.5369 18.0781C52.6761 17.8565 52.7457 17.5795 52.7457 17.2472ZM59.1431 13.4545V14.6477H55.3803V13.4545H59.1431ZM56.3093 11.8864H57.8519V18.0312C57.8519 18.2386 57.8832 18.3977 57.9457 18.5085C58.011 18.6165 58.0962 18.6903 58.2013 18.7301C58.3065 18.7699 58.4229 18.7898 58.5508 18.7898C58.6474 18.7898 58.7354 18.7827 58.815 18.7685C58.8974 18.7543 58.9599 18.7415 59.0025 18.7301L59.2624 19.9361C59.18 19.9645 59.0621 19.9957 58.9087 20.0298C58.7582 20.0639 58.5735 20.0838 58.3548 20.0895C57.9684 20.1009 57.6204 20.0426 57.3107 19.9148C57.0011 19.7841 56.7553 19.5824 56.5735 19.3097C56.3945 19.0369 56.3065 18.696 56.3093 18.2869V11.8864ZM62.3168 20.1321C61.902 20.1321 61.5284 20.0582 61.196 19.9105C60.8665 19.7599 60.6051 19.5384 60.4119 19.2457C60.2216 18.9531 60.1264 18.5923 60.1264 18.1634C60.1264 17.794 60.1946 17.4886 60.331 17.2472C60.4673 17.0057 60.6534 16.8125 60.8892 16.6676C61.125 16.5227 61.3906 16.4134 61.6861 16.3395C61.9844 16.2628 62.2926 16.2074 62.6108 16.1733C62.9943 16.1335 63.3054 16.098 63.544 16.0668C63.7827 16.0327 63.956 15.9815 64.0639 15.9134C64.1747 15.8423 64.2301 15.733 64.2301 15.5852V15.5597C64.2301 15.2386 64.1349 14.9901 63.9446 14.8139C63.7543 14.6378 63.4801 14.5497 63.1222 14.5497C62.7443 14.5497 62.4446 14.6321 62.223 14.7969C62.0043 14.9616 61.8565 15.1562 61.7798 15.3807L60.3395 15.1761C60.4531 14.7784 60.6406 14.446 60.902 14.179C61.1634 13.9091 61.483 13.7074 61.8608 13.5739C62.2386 13.4375 62.6563 13.3693 63.1136 13.3693C63.429 13.3693 63.7429 13.4062 64.0554 13.4801C64.3679 13.554 64.6534 13.6761 64.9119 13.8466C65.1705 14.0142 65.3778 14.2429 65.5341 14.5327C65.6932 14.8224 65.7727 15.1847 65.7727 15.6193V20H64.2898V19.1009H64.2386C64.1449 19.2827 64.0128 19.4531 63.8423 19.6122C63.6747 19.7685 63.4631 19.8949 63.2074 19.9915C62.9545 20.0852 62.6577 20.1321 62.3168 20.1321ZM62.7173 18.9986C63.027 18.9986 63.2955 18.9375 63.5227 18.8153C63.75 18.6903 63.9247 18.5256 64.0469 18.321C64.1719 18.1165 64.2344 17.8935 64.2344 17.652V16.8807C64.1861 16.9205 64.1037 16.9574 63.9872 16.9915C63.8736 17.0256 63.7457 17.0554 63.6037 17.081C63.4616 17.1065 63.321 17.1293 63.1818 17.1491C63.0426 17.169 62.9219 17.1861 62.8196 17.2003C62.5895 17.2315 62.3835 17.2827 62.2017 17.3537C62.0199 17.4247 61.8764 17.5241 61.7713 17.652C61.6662 17.777 61.6136 17.9389 61.6136 18.1378C61.6136 18.4219 61.7173 18.6364 61.9247 18.7812C62.1321 18.9261 62.3963 18.9986 62.7173 18.9986Z" fill="#E07B67"/>
</svg>
