<svg width="32" height="32" viewBox="0 0 32 32" fill="none" xmlns="http://www.w3.org/2000/svg">
<rect width="32" height="32" rx="16" fill="#261A17"/>
<g clip-path="url(#clip0_813_255)">
<path fill-rule="evenodd" clip-rule="evenodd" d="M12.6736 10.6667C13.5551 10.6681 14.3262 10.954 14.9401 11.2655C15.2488 11.4221 15.5254 11.5893 15.7593 11.7354C15.829 11.7789 15.8926 11.8191 15.9515 11.8563C15.9681 11.8667 15.9843 11.8769 16.0001 11.8869C16.0159 11.8769 16.0321 11.8667 16.0487 11.8563C16.1075 11.8191 16.1712 11.7789 16.2408 11.7354C16.4748 11.5893 16.7514 11.4221 17.0601 11.2655C17.6741 10.9539 18.4456 10.6679 19.3274 10.6667C20.3647 10.649 21.3672 11.0411 22.1172 11.7581C22.8688 12.4766 23.3058 13.4631 23.3332 14.5025C23.3333 14.5083 23.3334 14.5141 23.3334 14.52C23.3334 16.0455 22.8019 18.1759 22.0258 19.9194C21.6361 20.7949 21.1673 21.6133 20.6405 22.2246C20.1328 22.8137 19.4636 23.3333 18.6667 23.3333C18.1332 23.3333 17.62 23.1243 17.2329 22.9667C17.2032 22.9546 17.1744 22.9428 17.1463 22.9315C16.6994 22.751 16.3537 22.6267 16.0001 22.6267C15.6464 22.6267 15.3008 22.751 14.8539 22.9315C14.8258 22.9428 14.7969 22.9546 14.7673 22.9667C14.3802 23.1243 13.867 23.3333 13.3334 23.3333C12.5366 23.3333 11.8674 22.8137 11.3596 22.2246C10.8329 21.6133 10.364 20.7949 9.97436 19.9194C9.19831 18.1759 8.66675 16.0455 8.66675 14.52L8.66694 14.5038C8.69221 13.4634 9.1288 12.4753 9.88108 11.7562C10.6317 11.0386 11.6356 10.647 12.6736 10.6667ZM12.6529 11.9998C11.9651 11.9856 11.2997 12.2445 10.8025 12.7199C10.3071 13.1935 10.0188 13.8434 10.0001 14.5283C10.0021 15.8161 10.4701 17.7542 11.1925 19.3772C11.5528 20.1867 11.9589 20.8775 12.3697 21.3542C12.7995 21.8529 13.1302 22 13.3334 22C13.5924 22 13.875 21.8888 14.3546 21.6952C14.7827 21.5223 15.3537 21.2933 16.0001 21.2933C16.6464 21.2933 17.2174 21.5223 17.6455 21.6952C18.1252 21.8888 18.4078 22 18.6667 22C18.8699 22 19.2007 21.8529 19.6305 21.3542C20.0412 20.8775 20.4474 20.1867 20.8077 19.3772C21.53 17.7545 21.9979 15.8169 22.0001 14.529C21.9798 13.8445 21.691 13.1953 21.1958 12.7219C20.6986 12.2466 20.0336 11.987 19.3459 11.9999L19.3334 12C18.7377 12 18.178 12.1934 17.6634 12.4545C17.4071 12.5845 17.1696 12.7274 16.9472 12.8662C16.8954 12.8986 16.8426 12.932 16.7896 12.9654C16.6282 13.0674 16.4653 13.1702 16.3258 13.2483C16.1234 13.3617 15.8767 13.3617 15.6743 13.2483C15.5349 13.1702 15.372 13.0674 15.2105 12.9654C15.1576 12.932 15.1047 12.8986 15.0529 12.8662C14.8306 12.7274 14.593 12.5845 14.3368 12.4545C13.8222 12.1934 13.2625 12 12.6667 12L12.6529 11.9998Z" fill="#E07B67"/>
<path fill-rule="evenodd" clip-rule="evenodd" d="M14.0703 9.03517C14.2349 8.70586 14.6354 8.57237 14.9647 8.73703C15.9591 9.23423 16.6666 10.5528 16.6666 12.6666C16.6666 13.0348 16.3681 13.3333 15.9999 13.3333C15.6317 13.3333 15.3332 13.0348 15.3332 12.6666C15.3332 10.7805 14.7074 10.0991 14.3684 9.9296C14.0391 9.76494 13.9056 9.36449 14.0703 9.03517Z" fill="#E07B67"/>
</g>
<defs>
<clipPath id="clip0_813_255">
<rect width="16" height="16" fill="white" transform="translate(8 8)"/>
</clipPath>
</defs>
</svg>
