<svg width="32" height="32" viewBox="0 0 32 32" fill="none" xmlns="http://www.w3.org/2000/svg">
<rect width="32" height="32" rx="16" fill="#1C2015"/>
<g clip-path="url(#clip0_813_325)">
<path d="M12.5408 17.0606L13.2897 17.8059C13.5507 18.0656 13.9728 18.0646 14.2325 17.8036C14.4923 17.5426 14.4912 17.1205 14.2302 16.8608L13.2112 15.8467L12.5408 17.0606Z" fill="#8CAD51"/>
<path fill-rule="evenodd" clip-rule="evenodd" d="M15.8829 12.4362C15.4013 12.4358 14.9243 12.5303 14.4793 12.7142C14.0342 12.8981 13.6294 13.1683 13.2886 13.5086C12.741 14.0561 12.1997 14.8943 11.7054 15.7915C11.204 16.7013 10.7239 17.7226 10.3082 18.6739C9.89194 19.6267 9.53668 20.5178 9.28561 21.1702C9.15998 21.4967 9.06021 21.764 8.99169 21.9502C8.95742 22.0433 8.93096 22.1161 8.91296 22.1659L8.89241 22.223L8.88705 22.238L8.88512 22.2435L9.51332 22.4666L9.73663 23.0948L9.74173 23.093L9.75674 23.0876L9.81393 23.0671C9.86379 23.0491 9.93668 23.0226 10.0298 22.9884C10.2162 22.9199 10.4837 22.8201 10.8104 22.6946C11.4633 22.4436 12.355 22.0886 13.3082 21.6727C14.26 21.2575 15.2814 20.778 16.1909 20.2776C17.0874 19.7844 17.9249 19.2444 18.471 18.6984C18.5244 18.6452 18.576 18.5903 18.6258 18.534C18.651 18.5152 18.6752 18.4943 18.6981 18.4714C18.7558 18.4137 18.8007 18.348 18.8328 18.2779C19.0075 18.0406 19.1534 17.7827 19.2669 17.5093C19.4515 17.0646 19.5468 16.5878 19.5471 16.1062C19.5475 15.6246 19.453 15.1477 19.2691 14.7026C19.0852 14.2576 18.8154 13.8531 18.4751 13.5123C18.1348 13.1715 17.7308 12.901 17.286 12.7164C16.8412 12.5318 16.3644 12.4365 15.8829 12.4362ZM12.7751 20.4506C11.9935 20.7916 11.2526 21.0914 10.6559 21.3245C10.8891 20.7285 11.1889 19.9885 11.5301 19.2077C11.8411 18.4958 12.1844 17.7548 12.5408 17.0606L13.2112 15.8467C13.5719 15.247 13.9187 14.7642 14.2311 14.4516C14.448 14.2351 14.7054 14.0635 14.9886 13.9464C15.2718 13.8294 15.5753 13.7693 15.8818 13.7695C16.1883 13.7697 16.4917 13.8303 16.7748 13.9478C17.0579 14.0654 17.315 14.2375 17.5315 14.4543C17.7481 14.6712 17.9198 14.9286 18.0369 15.2119C18.1539 15.4951 18.214 15.7987 18.2138 16.1051C18.2136 16.3776 18.1657 16.6476 18.0725 16.903L17.0581 15.8886C16.7977 15.6282 16.3756 15.6282 16.1152 15.8886C15.8549 16.1489 15.8549 16.571 16.1152 16.8314L17.272 17.9881C16.8553 18.3363 16.2592 18.7183 15.5482 19.1094C14.6877 19.5828 13.7067 20.0442 12.7751 20.4506Z" fill="#8CAD51"/>
<path d="M9.73663 23.0948C9.73663 23.0948 9.73613 23.095 9.51332 22.4666C8.88506 22.2436 8.88512 22.2435 8.88512 22.2435C8.79911 22.4858 8.86005 22.7561 9.04184 22.938C9.22362 23.1198 9.49429 23.1807 9.73663 23.0948Z" fill="#8CAD51"/>
<path fill-rule="evenodd" clip-rule="evenodd" d="M18.358 12.799C18.8208 12.4537 19.5554 12 20.3334 12C21.2682 12 21.9977 12.4305 22.4678 12.8199C22.7058 13.017 22.8895 13.2132 23.0146 13.3611C23.0775 13.4355 23.1265 13.4987 23.1611 13.5453C23.1784 13.5686 23.1922 13.5878 23.2023 13.6023L23.2148 13.6204L23.219 13.6266L23.2206 13.629L23.2213 13.63C23.2214 13.6302 23.2219 13.6308 22.6668 14C23.2219 14.3692 23.2217 14.3694 23.2216 14.3696L23.2206 14.371L23.219 14.3734L23.2148 14.3796L23.2023 14.3977C23.1922 14.4122 23.1784 14.4314 23.1611 14.4547C23.1265 14.5013 23.0775 14.5645 23.0146 14.6389C22.8895 14.7868 22.7058 14.983 22.4678 15.1801C21.9977 15.5695 21.2682 16 20.3334 16C19.3986 16 18.6692 15.5695 18.199 15.1801C17.961 14.983 17.7773 14.7868 17.6522 14.6389C17.5893 14.5645 17.5403 14.5013 17.5058 14.4547C17.4884 14.4314 17.4747 14.4122 17.4645 14.3977L17.452 14.3796L17.4478 14.3734L17.4462 14.371L17.4455 14.37C17.4454 14.3698 17.445 14.3692 18.0001 14C17.5119 13.546 17.512 13.5459 17.5121 13.5458L17.5129 13.5449L17.5144 13.5433L17.5187 13.5387L17.5327 13.524C17.5444 13.5118 17.5607 13.4949 17.5814 13.474C17.6227 13.4323 17.6814 13.3742 17.755 13.3053C17.9012 13.1682 18.1097 12.9844 18.358 12.799ZM18.0001 14L17.5121 13.5458C17.3021 13.7716 17.2742 14.1123 17.445 14.3692L18.0001 14ZM18.9282 14.0471C18.9661 14.0821 19.0066 14.1177 19.0495 14.1532C19.3843 14.4305 19.8215 14.6667 20.3334 14.6667C20.8453 14.6667 21.2825 14.4305 21.6174 14.1532C21.6797 14.1016 21.7368 14.0499 21.7884 14C21.7368 13.9501 21.6797 13.8984 21.6174 13.8468C21.2825 13.5695 20.8453 13.3333 20.3334 13.3333C20.0181 13.3333 19.5861 13.5463 19.1555 13.8676C19.0745 13.9281 18.9983 13.9887 18.9282 14.0471ZM22.6668 14L23.2216 14.3696C23.3703 14.1459 23.3706 13.8545 23.2219 13.6308L22.6668 14Z" fill="#8CAD51"/>
<path fill-rule="evenodd" clip-rule="evenodd" d="M18.3692 8.77823L18 9.33335L17.6308 8.77823C17.8545 8.62951 18.1455 8.62951 18.3692 8.77823ZM18 14C17.6308 14.5551 17.6306 14.555 17.6304 14.5549L17.629 14.5539L17.6266 14.5523L17.6204 14.5481L17.6023 14.5356C17.5878 14.5254 17.5686 14.5117 17.5453 14.4943C17.4987 14.4598 17.4355 14.4108 17.3611 14.3479C17.2132 14.2228 17.017 14.0391 16.8199 13.8011C16.4305 13.3309 16 12.6015 16 11.6667C16 10.7319 16.4305 10.0024 16.8199 9.5323C17.017 9.29426 17.2132 9.11058 17.3611 8.98549C17.4355 8.92261 17.4987 8.8736 17.5453 8.83902C17.5686 8.82171 17.5878 8.80795 17.6023 8.79781L17.6204 8.7853L17.6266 8.78108L17.629 8.77948L17.63 8.77881C17.6302 8.77867 17.6308 8.77823 18 9.33335C18.3692 8.77823 18.3689 8.77808 18.3692 8.77823L18.37 8.77881L18.371 8.77948L18.3734 8.78108L18.3796 8.7853L18.3977 8.79781C18.4122 8.80795 18.4314 8.82171 18.4547 8.83902C18.5013 8.8736 18.5645 8.92261 18.6389 8.98549C18.7868 9.11058 18.983 9.29426 19.1801 9.5323C19.5695 10.0024 20 10.7319 20 11.6667C20 12.4508 19.5472 13.1849 19.2002 13.648C19.0145 13.8959 18.8303 14.1035 18.6929 14.2489C18.6238 14.322 18.5656 14.3804 18.5237 14.4215C18.5028 14.442 18.4858 14.4582 18.4735 14.4699L18.4587 14.4838L18.4541 14.4881L18.4525 14.4896L18.4519 14.4902C18.4517 14.4903 18.4514 14.4906 18 14ZM18 14L17.6304 14.5549C17.8861 14.7249 18.2254 14.6986 18.4514 14.4906L18 14ZM17.9546 13.0737C18.0126 13.0044 18.073 12.9289 18.1331 12.8487C18.4528 12.4218 18.6667 11.9893 18.6667 11.6667C18.6667 11.1548 18.4305 10.7176 18.1532 10.3827C18.1016 10.3204 18.0499 10.2633 18 10.2117C17.9501 10.2633 17.8984 10.3204 17.8468 10.3827C17.5695 10.7176 17.3333 11.1548 17.3333 11.6667C17.3333 12.1786 17.5695 12.6158 17.8468 12.9506C17.8829 12.9942 17.919 13.0353 17.9546 13.0737Z" fill="#8CAD51"/>
</g>
<defs>
<clipPath id="clip0_813_325">
<rect width="16" height="16" fill="white" transform="translate(8 8)"/>
</clipPath>
</defs>
</svg>
