<svg width="98" height="32" viewBox="0 0 98 32" fill="none" xmlns="http://www.w3.org/2000/svg">
<rect x="0.5" width="97" height="32" rx="16" fill="#1C2015"/>
<path d="M21.0408 17.0606L21.7897 17.8059C22.0507 18.0656 22.4728 18.0646 22.7325 17.8036C22.9923 17.5426 22.9912 17.1205 22.7302 16.8608L21.7112 15.8467L21.0408 17.0606Z" fill="#8CAD51"/>
<path fill-rule="evenodd" clip-rule="evenodd" d="M24.3829 12.4362C23.9013 12.4358 23.4243 12.5303 22.9793 12.7142C22.5342 12.8981 22.1294 13.1683 21.7886 13.5086C21.241 14.0561 20.6997 14.8943 20.2054 15.7915C19.704 16.7013 19.2239 17.7226 18.8082 18.6739C18.3919 19.6267 18.0367 20.5178 17.7856 21.1702C17.66 21.4967 17.5602 21.764 17.4917 21.9502C17.4574 22.0433 17.431 22.1161 17.413 22.1659L17.3924 22.223L17.387 22.238L17.3851 22.2435L18.0133 22.4666L18.2366 23.0948L18.2417 23.093L18.2567 23.0876L18.3139 23.0671C18.3638 23.0491 18.4367 23.0226 18.5298 22.9884C18.7162 22.9199 18.9837 22.8201 19.3104 22.6946C19.9633 22.4436 20.855 22.0886 21.8082 21.6727C22.76 21.2575 23.7814 20.778 24.6909 20.2776C25.5874 19.7844 26.4249 19.2444 26.971 18.6984C27.0244 18.6452 27.076 18.5903 27.1258 18.534C27.151 18.5152 27.1752 18.4943 27.1981 18.4714C27.2558 18.4137 27.3007 18.348 27.3328 18.2779C27.5075 18.0406 27.6534 17.7827 27.7669 17.5093C27.9515 17.0646 28.0468 16.5878 28.0471 16.1062C28.0475 15.6246 27.953 15.1477 27.7691 14.7026C27.5852 14.2576 27.3154 13.8531 26.9751 13.5123C26.6348 13.1715 26.2308 12.901 25.786 12.7164C25.3412 12.5318 24.8644 12.4365 24.3829 12.4362ZM21.2751 20.4506C20.4935 20.7916 19.7526 21.0914 19.1559 21.3245C19.3891 20.7285 19.6889 19.9885 20.0301 19.2077C20.3411 18.4958 20.6844 17.7548 21.0408 17.0606L21.7112 15.8467C22.0719 15.247 22.4187 14.7642 22.7311 14.4516C22.948 14.2351 23.2054 14.0635 23.4886 13.9464C23.7718 13.8294 24.0753 13.7693 24.3818 13.7695C24.6883 13.7697 24.9917 13.8303 25.2748 13.9478C25.5579 14.0654 25.815 14.2375 26.0315 14.4543C26.2481 14.6712 26.4198 14.9286 26.5369 15.2119C26.6539 15.4951 26.714 15.7987 26.7138 16.1051C26.7136 16.3776 26.6657 16.6476 26.5725 16.903L25.5581 15.8886C25.2977 15.6282 24.8756 15.6282 24.6152 15.8886C24.3549 16.1489 24.3549 16.571 24.6152 16.8314L25.772 17.9881C25.3553 18.3363 24.7592 18.7183 24.0482 19.1094C23.1877 19.5828 22.2067 20.0442 21.2751 20.4506Z" fill="#8CAD51"/>
<path d="M18.2366 23.0948C18.2366 23.0948 18.2361 23.095 18.0133 22.4666C17.3851 22.2436 17.3851 22.2435 17.3851 22.2435C17.2991 22.4858 17.36 22.7561 17.5418 22.938C17.7236 23.1198 17.9943 23.1807 18.2366 23.0948Z" fill="#8CAD51"/>
<path fill-rule="evenodd" clip-rule="evenodd" d="M26.858 12.799C27.3208 12.4537 28.0554 12 28.8334 12C29.7682 12 30.4977 12.4305 30.9678 12.8199C31.2058 13.017 31.3895 13.2132 31.5146 13.3611C31.5775 13.4355 31.6265 13.4987 31.6611 13.5453C31.6784 13.5686 31.6922 13.5878 31.7023 13.6023L31.7148 13.6204L31.719 13.6266L31.7206 13.629L31.7213 13.63C31.7214 13.6302 31.7219 13.6308 31.1668 14C31.7219 14.3692 31.7217 14.3694 31.7216 14.3696L31.7206 14.371L31.719 14.3734L31.7148 14.3796L31.7023 14.3977C31.6922 14.4122 31.6784 14.4314 31.6611 14.4547C31.6265 14.5013 31.5775 14.5645 31.5146 14.6389C31.3895 14.7868 31.2058 14.983 30.9678 15.1801C30.4977 15.5695 29.7682 16 28.8334 16C27.8986 16 27.1692 15.5695 26.699 15.1801C26.461 14.983 26.2773 14.7868 26.1522 14.6389C26.0893 14.5645 26.0403 14.5013 26.0058 14.4547C25.9884 14.4314 25.9747 14.4122 25.9645 14.3977L25.952 14.3796L25.9478 14.3734L25.9462 14.371L25.9455 14.37C25.9454 14.3698 25.945 14.3692 26.5001 14C26.0119 13.546 26.012 13.5459 26.0121 13.5458L26.0129 13.5449L26.0144 13.5433L26.0187 13.5387L26.0327 13.524C26.0444 13.5118 26.0607 13.4949 26.0814 13.474C26.1227 13.4323 26.1814 13.3742 26.255 13.3053C26.4012 13.1682 26.6097 12.9844 26.858 12.799ZM26.5001 14L26.0121 13.5458C25.8021 13.7716 25.7742 14.1123 25.945 14.3692L26.5001 14ZM27.4282 14.0471C27.4661 14.0821 27.5066 14.1177 27.5495 14.1532C27.8843 14.4305 28.3215 14.6667 28.8334 14.6667C29.3453 14.6667 29.7825 14.4305 30.1174 14.1532C30.1797 14.1016 30.2368 14.0499 30.2884 14C30.2368 13.9501 30.1797 13.8984 30.1174 13.8468C29.7825 13.5695 29.3453 13.3333 28.8334 13.3333C28.5181 13.3333 28.0861 13.5463 27.6555 13.8676C27.5745 13.9281 27.4983 13.9887 27.4282 14.0471ZM31.1668 14L31.7216 14.3696C31.8703 14.1459 31.8706 13.8545 31.7219 13.6308L31.1668 14Z" fill="#8CAD51"/>
<path fill-rule="evenodd" clip-rule="evenodd" d="M26.8692 8.77817L26.5 9.33329L26.1308 8.77817C26.3545 8.62945 26.6455 8.62945 26.8692 8.77817ZM26.5 14C26.1308 14.5551 26.1306 14.5549 26.1304 14.5548L26.129 14.5538L26.1266 14.5522L26.1204 14.548L26.1023 14.5355C26.0878 14.5254 26.0686 14.5116 26.0453 14.4943C25.9987 14.4597 25.9355 14.4107 25.8611 14.3478C25.7132 14.2227 25.517 14.0391 25.3199 13.801C24.9305 13.3309 24.5 12.6014 24.5 11.6666C24.5 10.7318 24.9305 10.0024 25.3199 9.53224C25.517 9.2942 25.7132 9.11052 25.8611 8.98543C25.9355 8.92255 25.9987 8.87354 26.0453 8.83896C26.0686 8.82165 26.0878 8.80789 26.1023 8.79775L26.1204 8.78524L26.1266 8.78102L26.129 8.77942L26.13 8.77875C26.1302 8.77861 26.1308 8.77817 26.5 9.33329C26.8692 8.77817 26.8689 8.77802 26.8692 8.77817L26.87 8.77875L26.871 8.77942L26.8734 8.78102L26.8796 8.78524L26.8977 8.79775C26.9122 8.80789 26.9314 8.82165 26.9547 8.83896C27.0013 8.87354 27.0645 8.92255 27.1389 8.98543C27.2868 9.11052 27.483 9.2942 27.6801 9.53224C28.0695 10.0024 28.5 10.7318 28.5 11.6666C28.5 12.4507 28.0472 13.1848 27.7002 13.648C27.5145 13.8959 27.3303 14.1034 27.1929 14.2489C27.1238 14.322 27.0656 14.3804 27.0237 14.4214C27.0028 14.4419 26.9858 14.4582 26.9735 14.4698L26.9587 14.4838L26.9541 14.4881L26.9525 14.4896L26.9519 14.4901C26.9517 14.4902 26.9514 14.4906 26.5 14ZM26.5 14L26.1304 14.5548C26.3861 14.7249 26.7254 14.6985 26.9514 14.4906L26.5 14ZM26.4546 13.0736C26.5126 13.0043 26.573 12.9289 26.6331 12.8486C26.9528 12.4218 27.1667 11.9892 27.1667 11.6666C27.1667 11.1548 26.9305 10.7176 26.6532 10.3827C26.6016 10.3204 26.5499 10.2633 26.5 10.2116C26.4501 10.2633 26.3984 10.3204 26.3468 10.3827C26.0695 10.7176 25.8333 11.1548 25.8333 11.6666C25.8333 12.1785 26.0695 12.6157 26.3468 12.9506C26.3829 12.9942 26.419 13.0352 26.4546 13.0736Z" fill="#8CAD51"/>
<path d="M40.8352 11.2727V20H39.2926V11.2727H40.8352ZM45.3192 20.1278C44.663 20.1278 44.0962 19.9915 43.619 19.7188C43.1445 19.4432 42.7795 19.054 42.5238 18.5511C42.2681 18.0455 42.1403 17.4503 42.1403 16.7656C42.1403 16.0923 42.2681 15.5014 42.5238 14.9929C42.7823 14.4815 43.1431 14.0838 43.6062 13.7997C44.0692 13.5128 44.6133 13.3693 45.2383 13.3693C45.6417 13.3693 46.0224 13.4347 46.3803 13.5653C46.7411 13.6932 47.0593 13.892 47.3349 14.1619C47.6133 14.4318 47.832 14.7756 47.9911 15.1932C48.1502 15.608 48.2298 16.1023 48.2298 16.6761V17.1491H42.8647V16.1094H46.7511C46.7482 15.8139 46.6843 15.5511 46.5593 15.321C46.4343 15.0881 46.2596 14.9048 46.0352 14.7713C45.8136 14.6378 45.555 14.571 45.2596 14.571C44.9442 14.571 44.6673 14.6477 44.4286 14.8011C44.19 14.9517 44.0039 15.1506 43.8704 15.3977C43.7397 15.642 43.6729 15.9105 43.6701 16.2031V17.1108C43.6701 17.4915 43.7397 17.8182 43.8789 18.0909C44.0181 18.3608 44.2127 18.5682 44.4627 18.7131C44.7127 18.8551 45.0053 18.9261 45.3406 18.9261C45.565 18.9261 45.7681 18.8949 45.9499 18.8324C46.1317 18.767 46.2894 18.6719 46.4229 18.5469C46.5565 18.4219 46.6573 18.267 46.7255 18.0824L48.1658 18.2443C48.0749 18.625 47.9016 18.9574 47.646 19.2415C47.3931 19.5227 47.0692 19.7415 46.6744 19.8977C46.2795 20.0511 45.8278 20.1278 45.3192 20.1278ZM52.3814 22.5909C51.8274 22.5909 51.3516 22.5156 50.9538 22.3651C50.5561 22.2173 50.2365 22.0185 49.995 21.7685C49.7536 21.5185 49.5859 21.2415 49.4922 20.9375L50.8814 20.6009C50.9439 20.7287 51.0348 20.8551 51.1541 20.9801C51.2734 21.108 51.4339 21.2131 51.6357 21.2955C51.8402 21.3807 52.0973 21.4233 52.407 21.4233C52.8445 21.4233 53.2067 21.3168 53.4936 21.1037C53.7805 20.8935 53.924 20.5469 53.924 20.0639V18.8239H53.8473C53.7678 18.983 53.6513 19.1463 53.4979 19.3139C53.3473 19.4815 53.147 19.6222 52.897 19.7358C52.6499 19.8494 52.3388 19.9062 51.9638 19.9062C51.4609 19.9062 51.005 19.7884 50.5959 19.5526C50.1896 19.3139 49.8658 18.9588 49.6243 18.4872C49.3857 18.0128 49.2663 17.419 49.2663 16.706C49.2663 15.9872 49.3857 15.3807 49.6243 14.8864C49.8658 14.3892 50.1911 14.0128 50.6001 13.7571C51.0092 13.4986 51.4652 13.3693 51.968 13.3693C52.3516 13.3693 52.6669 13.4347 52.9141 13.5653C53.1641 13.6932 53.3629 13.848 53.5107 14.0298C53.6584 14.2088 53.7706 14.3778 53.8473 14.5369H53.9325V13.4545H55.4538V20.1065C55.4538 20.6662 55.3203 21.1293 55.0533 21.4957C54.7862 21.8622 54.4212 22.1364 53.9581 22.3182C53.495 22.5 52.9695 22.5909 52.3814 22.5909ZM52.3942 18.696C52.7209 18.696 52.9993 18.6165 53.2294 18.4574C53.4595 18.2983 53.6342 18.0696 53.7536 17.7713C53.8729 17.473 53.9325 17.1151 53.9325 16.6974C53.9325 16.2855 53.8729 15.9247 53.7536 15.6151C53.6371 15.3054 53.4638 15.0653 53.2337 14.8949C53.0064 14.7216 52.7266 14.6349 52.3942 14.6349C52.0504 14.6349 51.7635 14.7244 51.5334 14.9034C51.3033 15.0824 51.13 15.3281 51.0135 15.6406C50.897 15.9503 50.8388 16.3026 50.8388 16.6974C50.8388 17.098 50.897 17.4489 51.0135 17.75C51.1328 18.0483 51.3075 18.2812 51.5376 18.4489C51.7706 18.6136 52.0561 18.696 52.3942 18.696ZM61.2067 17.2472V13.4545H62.7493V20H61.2536V18.8366H61.1854C61.0376 19.2031 60.7947 19.5028 60.4567 19.7358C60.1214 19.9687 59.7081 20.0852 59.2166 20.0852C58.7876 20.0852 58.4084 19.9901 58.0788 19.7997C57.7521 19.6065 57.4964 19.3267 57.3118 18.9602C57.1271 18.5909 57.0348 18.1449 57.0348 17.6222V13.4545H58.5774V17.3835C58.5774 17.7983 58.6911 18.1278 58.9183 18.3722C59.1456 18.6165 59.4439 18.7386 59.8132 18.7386C60.0405 18.7386 60.2607 18.6832 60.4737 18.5724C60.6868 18.4616 60.8615 18.2969 60.9979 18.0781C61.1371 17.8565 61.2067 17.5795 61.2067 17.2472ZM64.3356 20V13.4545H65.81V14.5668H65.8867C66.0231 14.1918 66.2489 13.8991 66.5643 13.6889C66.8796 13.4759 67.256 13.3693 67.6935 13.3693C68.1367 13.3693 68.5103 13.4773 68.8143 13.6932C69.1211 13.9062 69.337 14.1974 69.462 14.5668H69.5302C69.6751 14.2031 69.9194 13.9134 70.2631 13.6974C70.6097 13.4787 71.0202 13.3693 71.4947 13.3693C72.0969 13.3693 72.5884 13.5597 72.9691 13.9403C73.3498 14.321 73.5401 14.8764 73.5401 15.6065V20H71.9933V15.8452C71.9933 15.4389 71.8853 15.142 71.6694 14.9545C71.4535 14.7642 71.1893 14.669 70.8768 14.669C70.5046 14.669 70.2134 14.7855 70.0032 15.0185C69.7958 15.2486 69.6921 15.5483 69.6921 15.9176V20H68.1793V15.7812C68.1793 15.4432 68.0771 15.1733 67.8725 14.9716C67.6708 14.7699 67.4066 14.669 67.0799 14.669C66.8583 14.669 66.6566 14.7259 66.4748 14.8395C66.293 14.9503 66.1481 15.108 66.0401 15.3125C65.9322 15.5142 65.8782 15.75 65.8782 16.0199V20H64.3356ZM78.0028 20.1278C77.3466 20.1278 76.7798 19.9915 76.3026 19.7188C75.8281 19.4432 75.4631 19.054 75.2074 18.5511C74.9517 18.0455 74.8239 17.4503 74.8239 16.7656C74.8239 16.0923 74.9517 15.5014 75.2074 14.9929C75.4659 14.4815 75.8267 14.0838 76.2898 13.7997C76.7528 13.5128 77.2969 13.3693 77.9219 13.3693C78.3253 13.3693 78.706 13.4347 79.0639 13.5653C79.4247 13.6932 79.7429 13.892 80.0185 14.1619C80.2969 14.4318 80.5156 14.7756 80.6747 15.1932C80.8338 15.608 80.9134 16.1023 80.9134 16.6761V17.1491H75.5483V16.1094H79.4347C79.4318 15.8139 79.3679 15.5511 79.2429 15.321C79.1179 15.0881 78.9432 14.9048 78.7188 14.7713C78.4972 14.6378 78.2386 14.571 77.9432 14.571C77.6278 14.571 77.3509 14.6477 77.1122 14.8011C76.8736 14.9517 76.6875 15.1506 76.554 15.3977C76.4233 15.642 76.3565 15.9105 76.3537 16.2031V17.1108C76.3537 17.4915 76.4233 17.8182 76.5625 18.0909C76.7017 18.3608 76.8963 18.5682 77.1463 18.7131C77.3963 18.8551 77.6889 18.9261 78.0241 18.9261C78.2486 18.9261 78.4517 18.8949 78.6335 18.8324C78.8153 18.767 78.973 18.6719 79.1065 18.5469C79.2401 18.4219 79.3409 18.267 79.4091 18.0824L80.8494 18.2443C80.7585 18.625 80.5852 18.9574 80.3295 19.2415C80.0767 19.5227 79.7528 19.7415 79.358 19.8977C78.9631 20.0511 78.5114 20.1278 78.0028 20.1278Z" fill="#8CAD51"/>
</svg>
