<svg width="98" height="32" viewBox="0 0 98 32" fill="none" xmlns="http://www.w3.org/2000/svg">
<rect width="98" height="32" rx="16" fill="#211E12"/>
<path fill-rule="evenodd" clip-rule="evenodd" d="M17.9999 14.6666C18.3681 14.6666 18.6666 14.9651 18.6666 15.3333V17.3333H29.3333V15.3333C29.3333 14.9651 29.6317 14.6666 29.9999 14.6666C30.3681 14.6666 30.6666 14.9651 30.6666 15.3333V17.3333C30.6666 17.6869 30.5261 18.0261 30.2761 18.2761C30.026 18.5262 29.6869 18.6666 29.3333 18.6666H18.6666C18.313 18.6666 17.9738 18.5262 17.7238 18.2761C17.4737 18.0261 17.3333 17.6869 17.3333 17.3333V15.3333C17.3333 14.9651 17.6317 14.6666 17.9999 14.6666Z" fill="#BB9F3A"/>
<path fill-rule="evenodd" clip-rule="evenodd" d="M17.7238 17.7239C17.9738 17.4739 18.313 17.3334 18.6666 17.3334H29.3333C29.6869 17.3334 30.026 17.4738 30.2761 17.7239C30.5261 17.9739 30.6666 18.3131 30.6666 18.6667V20C30.6666 20.3537 30.5261 20.6928 30.2761 20.9429C30.026 21.1929 29.6869 21.3334 29.3333 21.3334H26.7799C26.4117 21.3334 26.1133 21.0349 26.1133 20.6667C26.1133 20.2985 26.4117 20 26.7799 20H29.3333V18.6667L18.6666 18.6667V20L23.9999 20C24.3681 20 24.6666 20.2985 24.6666 20.6667C24.6666 21.0349 24.3681 21.3334 23.9999 21.3334H18.6666C18.313 21.3334 17.9738 21.1929 17.7238 20.9429C17.4737 20.6928 17.3333 20.3537 17.3333 20V18.6667C17.3333 18.3131 17.4737 17.9739 17.7238 17.7239Z" fill="#BB9F3A"/>
<path fill-rule="evenodd" clip-rule="evenodd" d="M24 11.6914C23.8514 11.6914 23.7071 11.741 23.59 11.8323L19.9438 14.6667H28.0561L24.41 11.8323C24.2928 11.741 24.1485 11.6914 24 11.6914ZM22.7705 10.7806C23.1218 10.5067 23.5545 10.358 24 10.358C24.4454 10.358 24.8781 10.5067 25.2295 10.7806C25.2293 10.7805 25.2296 10.7807 25.2295 10.7806L30.4091 14.807C30.634 14.9818 30.723 15.2802 30.6306 15.5496C30.5382 15.819 30.2848 16 30 16H18C17.7151 16 17.4618 15.819 17.3693 15.5496C17.2769 15.2802 17.3659 14.9818 17.5908 14.807L22.7705 10.7806C22.7706 10.7805 22.7703 10.7807 22.7705 10.7806Z" fill="#BB9F3A"/>
<path fill-rule="evenodd" clip-rule="evenodd" d="M20.0376 17.7796C20.1312 17.5123 20.3835 17.3334 20.6667 17.3334H29C29.2587 17.3334 29.494 17.483 29.6038 17.7173C29.7135 17.9515 29.6778 18.2281 29.5122 18.4268L27.0095 21.43C26.6729 21.8288 26.1938 22.0803 25.6744 22.1307C25.1553 22.1811 24.637 22.0267 24.2301 21.7005C24.2299 21.7003 24.2297 21.7002 24.2295 21.7L20.2506 18.5209C20.0293 18.3441 19.9439 18.0468 20.0376 17.7796ZM22.5691 18.6667L25.0639 20.6601C25.1996 20.7689 25.3724 20.8204 25.5456 20.8036C25.7181 20.7869 25.8773 20.7035 25.9894 20.5714L27.5767 18.6667H22.5691Z" fill="#BB9F3A"/>
<path d="M38.7926 22.4545V13.4545H40.3097V14.5369H40.3991C40.4787 14.3778 40.5909 14.2088 40.7358 14.0298C40.8807 13.848 41.0767 13.6932 41.3239 13.5653C41.571 13.4347 41.8864 13.3693 42.2699 13.3693C42.7756 13.3693 43.2315 13.4986 43.6378 13.7571C44.0469 14.0128 44.3707 14.392 44.6094 14.8949C44.8509 15.3949 44.9716 16.0085 44.9716 16.7358C44.9716 17.4545 44.8537 18.0653 44.6179 18.5682C44.3821 19.071 44.0611 19.4545 43.6548 19.7188C43.2486 19.983 42.7884 20.1151 42.2741 20.1151C41.8991 20.1151 41.5881 20.0526 41.3409 19.9276C41.0938 19.8026 40.8949 19.652 40.7443 19.4759C40.5966 19.2969 40.4815 19.1278 40.3991 18.9688H40.3352V22.4545H38.7926ZM40.3054 16.7273C40.3054 17.1506 40.3651 17.5213 40.4844 17.8395C40.6065 18.1577 40.7813 18.4062 41.0085 18.5852C41.2386 18.7614 41.517 18.8494 41.8438 18.8494C42.1847 18.8494 42.4702 18.7585 42.7003 18.5767C42.9304 18.392 43.1037 18.1406 43.2202 17.8224C43.3395 17.5014 43.3991 17.1364 43.3991 16.7273C43.3991 16.321 43.3409 15.9602 43.2244 15.6449C43.108 15.3295 42.9347 15.0824 42.7045 14.9034C42.4744 14.7244 42.1875 14.6349 41.8438 14.6349C41.5142 14.6349 41.2344 14.7216 41.0043 14.8949C40.7741 15.0682 40.5994 15.3111 40.4801 15.6236C40.3636 15.9361 40.3054 16.304 40.3054 16.7273ZM48.1761 20.1321C47.7614 20.1321 47.3878 20.0582 47.0554 19.9105C46.7259 19.7599 46.4645 19.5384 46.2713 19.2457C46.081 18.9531 45.9858 18.5923 45.9858 18.1634C45.9858 17.794 46.054 17.4886 46.1903 17.2472C46.3267 17.0057 46.5128 16.8125 46.7486 16.6676C46.9844 16.5227 47.25 16.4134 47.5455 16.3395C47.8438 16.2628 48.152 16.2074 48.4702 16.1733C48.8537 16.1335 49.1648 16.098 49.4034 16.0668C49.642 16.0327 49.8153 15.9815 49.9233 15.9134C50.0341 15.8423 50.0895 15.733 50.0895 15.5852V15.5597C50.0895 15.2386 49.9943 14.9901 49.804 14.8139C49.6136 14.6378 49.3395 14.5497 48.9815 14.5497C48.6037 14.5497 48.304 14.6321 48.0824 14.7969C47.8636 14.9616 47.7159 15.1562 47.6392 15.3807L46.1989 15.1761C46.3125 14.7784 46.5 14.446 46.7614 14.179C47.0227 13.9091 47.3423 13.7074 47.7202 13.5739C48.098 13.4375 48.5156 13.3693 48.973 13.3693C49.2884 13.3693 49.6023 13.4062 49.9148 13.4801C50.2273 13.554 50.5128 13.6761 50.7713 13.8466C51.0298 14.0142 51.2372 14.2429 51.3935 14.5327C51.5526 14.8224 51.6321 15.1847 51.6321 15.6193V20H50.1491V19.1009H50.098C50.0043 19.2827 49.8722 19.4531 49.7017 19.6122C49.5341 19.7685 49.3224 19.8949 49.0668 19.9915C48.8139 20.0852 48.517 20.1321 48.1761 20.1321ZM48.5767 18.9986C48.8864 18.9986 49.1548 18.9375 49.3821 18.8153C49.6094 18.6903 49.7841 18.5256 49.9062 18.321C50.0312 18.1165 50.0938 17.8935 50.0938 17.652V16.8807C50.0455 16.9205 49.9631 16.9574 49.8466 16.9915C49.733 17.0256 49.6051 17.0554 49.4631 17.081C49.321 17.1065 49.1804 17.1293 49.0412 17.1491C48.902 17.169 48.7813 17.1861 48.679 17.2003C48.4489 17.2315 48.2429 17.2827 48.0611 17.3537C47.8793 17.4247 47.7358 17.5241 47.6307 17.652C47.5256 17.777 47.473 17.9389 47.473 18.1378C47.473 18.4219 47.5767 18.6364 47.7841 18.7812C47.9915 18.9261 48.2557 18.9986 48.5767 18.9986ZM55.6122 20.1151C55.098 20.1151 54.6378 19.983 54.2315 19.7188C53.8253 19.4545 53.5043 19.071 53.2685 18.5682C53.0327 18.0653 52.9148 17.4545 52.9148 16.7358C52.9148 16.0085 53.0341 15.3949 53.2727 14.8949C53.5142 14.392 53.8395 14.0128 54.2486 13.7571C54.6577 13.4986 55.1136 13.3693 55.6165 13.3693C56 13.3693 56.3153 13.4347 56.5625 13.5653C56.8097 13.6932 57.0057 13.848 57.1506 14.0298C57.2955 14.2088 57.4077 14.3778 57.4872 14.5369H57.5511V11.2727H59.098V20H57.581V18.9688H57.4872C57.4077 19.1278 57.2926 19.2969 57.142 19.4759C56.9915 19.652 56.7926 19.8026 56.5455 19.9276C56.2983 20.0526 55.9872 20.1151 55.6122 20.1151ZM56.0426 18.8494C56.3693 18.8494 56.6477 18.7614 56.8778 18.5852C57.108 18.4062 57.2827 18.1577 57.402 17.8395C57.5213 17.5213 57.581 17.1506 57.581 16.7273C57.581 16.304 57.5213 15.9361 57.402 15.6236C57.2855 15.3111 57.1122 15.0682 56.8821 14.8949C56.6548 14.7216 56.375 14.6349 56.0426 14.6349C55.6989 14.6349 55.4119 14.7244 55.1818 14.9034C54.9517 15.0824 54.7784 15.3295 54.6619 15.6449C54.5455 15.9602 54.4872 16.321 54.4872 16.7273C54.4872 17.1364 54.5455 17.5014 54.6619 17.8224C54.7813 18.1406 54.956 18.392 55.1861 18.5767C55.419 18.7585 55.7045 18.8494 56.0426 18.8494ZM62.6254 20.1321C62.2106 20.1321 61.837 20.0582 61.5046 19.9105C61.1751 19.7599 60.9137 19.5384 60.7205 19.2457C60.5302 18.9531 60.435 18.5923 60.435 18.1634C60.435 17.794 60.5032 17.4886 60.6396 17.2472C60.7759 17.0057 60.962 16.8125 61.1978 16.6676C61.4336 16.5227 61.6992 16.4134 61.9947 16.3395C62.293 16.2628 62.6012 16.2074 62.9194 16.1733C63.3029 16.1335 63.614 16.098 63.8526 16.0668C64.0913 16.0327 64.2646 15.9815 64.3725 15.9134C64.4833 15.8423 64.5387 15.733 64.5387 15.5852V15.5597C64.5387 15.2386 64.4435 14.9901 64.2532 14.8139C64.0629 14.6378 63.7887 14.5497 63.4308 14.5497C63.0529 14.5497 62.7532 14.6321 62.5316 14.7969C62.3129 14.9616 62.1651 15.1562 62.0884 15.3807L60.6481 15.1761C60.7617 14.7784 60.9492 14.446 61.2106 14.179C61.4719 13.9091 61.7915 13.7074 62.1694 13.5739C62.5472 13.4375 62.9648 13.3693 63.4222 13.3693C63.7376 13.3693 64.0515 13.4062 64.364 13.4801C64.6765 13.554 64.962 13.6761 65.2205 13.8466C65.479 14.0142 65.6864 14.2429 65.8427 14.5327C66.0018 14.8224 66.0813 15.1847 66.0813 15.6193V20H64.5984V19.1009H64.5472C64.4535 19.2827 64.3214 19.4531 64.1509 19.6122C63.9833 19.7685 63.7717 19.8949 63.516 19.9915C63.2631 20.0852 62.9663 20.1321 62.6254 20.1321ZM63.0259 18.9986C63.3356 18.9986 63.604 18.9375 63.8313 18.8153C64.0586 18.6903 64.2333 18.5256 64.3555 18.321C64.4805 18.1165 64.543 17.8935 64.543 17.652V16.8807C64.4947 16.9205 64.4123 16.9574 64.2958 16.9915C64.1822 17.0256 64.0543 17.0554 63.9123 17.081C63.7702 17.1065 63.6296 17.1293 63.4904 17.1491C63.3512 17.169 63.2305 17.1861 63.1282 17.2003C62.8981 17.2315 62.6921 17.2827 62.5103 17.3537C62.3285 17.4247 62.185 17.5241 62.0799 17.652C61.9748 17.777 61.9222 17.9389 61.9222 18.1378C61.9222 18.4219 62.0259 18.6364 62.2333 18.7812C62.4407 18.9261 62.7049 18.9986 63.0259 18.9986ZM67.6325 20V13.4545H69.1282V14.5455H69.1964C69.3157 14.1676 69.5202 13.8764 69.81 13.6719C70.1026 13.4645 70.4364 13.3608 70.8114 13.3608C70.8967 13.3608 70.9918 13.3651 71.0969 13.3736C71.2049 13.3793 71.2944 13.3892 71.3654 13.4034V14.8224C71.3001 14.7997 71.1964 14.7798 71.0543 14.7628C70.9151 14.7429 70.7802 14.733 70.6495 14.733C70.3683 14.733 70.1154 14.794 69.891 14.9162C69.6694 15.0355 69.4947 15.2017 69.3668 15.4148C69.239 15.6278 69.1751 15.8736 69.1751 16.152V20H67.6325ZM72.3903 20V13.4545H73.9329V20H72.3903ZM73.1658 12.5256C72.9215 12.5256 72.7113 12.4446 72.5352 12.2827C72.359 12.1179 72.271 11.9205 72.271 11.6903C72.271 11.4574 72.359 11.2599 72.5352 11.098C72.7113 10.9332 72.9215 10.8509 73.1658 10.8509C73.413 10.8509 73.6232 10.9332 73.7965 11.098C73.9727 11.2599 74.0607 11.4574 74.0607 11.6903C74.0607 11.9205 73.9727 12.1179 73.7965 12.2827C73.6232 12.4446 73.413 12.5256 73.1658 12.5256ZM77.4027 20.1321C76.9879 20.1321 76.6143 20.0582 76.282 19.9105C75.9524 19.7599 75.6911 19.5384 75.4979 19.2457C75.3075 18.9531 75.2124 18.5923 75.2124 18.1634C75.2124 17.794 75.2805 17.4886 75.4169 17.2472C75.5533 17.0057 75.7393 16.8125 75.9751 16.6676C76.2109 16.5227 76.4766 16.4134 76.772 16.3395C77.0703 16.2628 77.3786 16.2074 77.6967 16.1733C78.0803 16.1335 78.3913 16.098 78.63 16.0668C78.8686 16.0327 79.0419 15.9815 79.1499 15.9134C79.2607 15.8423 79.3161 15.733 79.3161 15.5852V15.5597C79.3161 15.2386 79.2209 14.9901 79.0305 14.8139C78.8402 14.6378 78.5661 14.5497 78.2081 14.5497C77.8303 14.5497 77.5305 14.6321 77.3089 14.7969C77.0902 14.9616 76.9425 15.1562 76.8658 15.3807L75.4254 15.1761C75.5391 14.7784 75.7266 14.446 75.9879 14.179C76.2493 13.9091 76.5689 13.7074 76.9467 13.5739C77.3246 13.4375 77.7422 13.3693 78.1996 13.3693C78.5149 13.3693 78.8288 13.4062 79.1413 13.4801C79.4538 13.554 79.7393 13.6761 79.9979 13.8466C80.2564 14.0142 80.4638 14.2429 80.62 14.5327C80.7791 14.8224 80.8587 15.1847 80.8587 15.6193V20H79.3757V19.1009H79.3246C79.2308 19.2827 79.0987 19.4531 78.9283 19.6122C78.7607 19.7685 78.549 19.8949 78.2933 19.9915C78.0405 20.0852 77.7436 20.1321 77.4027 20.1321ZM77.8033 18.9986C78.1129 18.9986 78.3814 18.9375 78.6087 18.8153C78.8359 18.6903 79.0107 18.5256 79.1328 18.321C79.2578 18.1165 79.3203 17.8935 79.3203 17.652V16.8807C79.272 16.9205 79.1896 16.9574 79.0732 16.9915C78.9595 17.0256 78.8317 17.0554 78.6896 17.081C78.5476 17.1065 78.407 17.1293 78.2678 17.1491C78.1286 17.169 78.0078 17.1861 77.9055 17.2003C77.6754 17.2315 77.4695 17.2827 77.2876 17.3537C77.1058 17.4247 76.9624 17.5241 76.8572 17.652C76.7521 17.777 76.6996 17.9389 76.6996 18.1378C76.6996 18.4219 76.8033 18.6364 77.0107 18.7812C77.218 18.9261 77.4822 18.9986 77.8033 18.9986Z" fill="#BB9F3A"/>
</svg>
