<svg width="32" height="32" viewBox="0 0 32 32" fill="none" xmlns="http://www.w3.org/2000/svg">
<rect width="32" height="32" rx="16" fill="#211E12"/>
<path fill-rule="evenodd" clip-rule="evenodd" d="M9.99992 14.6667C10.3681 14.6667 10.6666 14.9652 10.6666 15.3334V17.3334H21.3333V15.3334C21.3333 14.9652 21.6317 14.6667 21.9999 14.6667C22.3681 14.6667 22.6666 14.9652 22.6666 15.3334V17.3334C22.6666 17.687 22.5261 18.0261 22.2761 18.2762C22.026 18.5262 21.6869 18.6667 21.3333 18.6667H10.6666C10.313 18.6667 9.97382 18.5262 9.72378 18.2762C9.47373 18.0261 9.33325 17.687 9.33325 17.3334V15.3334C9.33325 14.9652 9.63173 14.6667 9.99992 14.6667Z" fill="#BB9F3A"/>
<path fill-rule="evenodd" clip-rule="evenodd" d="M9.72378 17.7238C9.97382 17.4738 10.313 17.3333 10.6666 17.3333H21.3333C21.6869 17.3333 22.026 17.4738 22.2761 17.7238C22.5261 17.9739 22.6666 18.313 22.6666 18.6666V20C22.6666 20.3536 22.5261 20.6927 22.2761 20.9428C22.026 21.1928 21.6869 21.3333 21.3333 21.3333H18.7799C18.4117 21.3333 18.1133 21.0348 18.1133 20.6666C18.1133 20.2985 18.4117 20 18.7799 20H21.3333V18.6666L10.6666 18.6666V20L15.9999 20C16.3681 20 16.6666 20.2985 16.6666 20.6666C16.6666 21.0348 16.3681 21.3333 15.9999 21.3333H10.6666C10.313 21.3333 9.97383 21.1928 9.72378 20.9428C9.47373 20.6927 9.33325 20.3536 9.33325 20V18.6666C9.33325 18.313 9.47373 17.9739 9.72378 17.7238Z" fill="#BB9F3A"/>
<path fill-rule="evenodd" clip-rule="evenodd" d="M16 11.6914C15.8514 11.6914 15.7071 11.741 15.59 11.8323L11.9438 14.6667H20.0561L16.41 11.8323C16.2928 11.741 16.1485 11.6914 16 11.6914ZM14.7705 10.7806C15.1218 10.5067 15.5545 10.358 16 10.358C16.4454 10.358 16.8781 10.5067 17.2295 10.7806C17.2293 10.7805 17.2296 10.7807 17.2295 10.7806L22.4091 14.807C22.634 14.9818 22.723 15.2802 22.6306 15.5496C22.5382 15.819 22.2848 16 22 16H9.99996C9.71512 16 9.46175 15.819 9.36935 15.5496C9.27694 15.2802 9.36592 14.9818 9.59081 14.807L14.7705 10.7806C14.7706 10.7805 14.7703 10.7807 14.7705 10.7806Z" fill="#BB9F3A"/>
<path fill-rule="evenodd" clip-rule="evenodd" d="M12.0376 17.7795C12.1312 17.5122 12.3835 17.3333 12.6667 17.3333H21C21.2587 17.3333 21.494 17.483 21.6038 17.7172C21.7135 17.9515 21.6778 18.228 21.5122 18.4268L19.0095 21.43C18.6729 21.8288 18.1938 22.0802 17.6744 22.1306C17.1553 22.1811 16.637 22.0267 16.2301 21.7004C16.2299 21.7003 16.2297 21.7001 16.2295 21.7L12.2506 18.5208C12.0293 18.344 11.9439 18.0468 12.0376 17.7795ZM14.5691 18.6666L17.0639 20.66C17.1996 20.7688 17.3724 20.8204 17.5456 20.8035C17.7181 20.7868 17.8773 20.7035 17.9894 20.5713L19.5767 18.6666H14.5691Z" fill="#BB9F3A"/>
</svg>
